<svg width="112" height="27" viewBox="0 0 112 27" fill="none" xmlns="http://www.w3.org/2000/svg">
<g clip-path="url(#clip0_5_395)">
<path d="M74.6904 0H77.2308V20.8631H74.6904V0Z" fill="#AAAAAA"/>
<path d="M82.6404 3.03932H80.1001V0H82.6404V3.03932ZM80.1001 5.75702H82.6404V20.8641H80.1001V5.75598V5.75702Z" fill="#AAAAAA"/>
<path d="M92.3832 20.8631H89.664L83.9254 5.75598H86.7649L91.0992 18.3504H91.1588L95.3728 5.75598H98.0324L92.3832 20.8631Z" fill="#AAAAAA"/>
<path d="M111.752 16.0709C111.064 19.4016 108.613 21.2138 105.147 21.2138C100.215 21.2138 97.8834 17.883 97.7344 13.2658C97.7344 8.73696 100.783 5.40515 104.998 5.40515C110.468 5.40515 112.142 10.4013 111.991 14.0547H100.425C100.335 16.685 101.859 19.0217 105.237 19.0217C107.329 19.0217 108.794 18.0287 109.243 16.0709H111.753H111.752ZM109.301 11.8627C109.182 9.49575 107.358 7.59617 104.848 7.59617C102.188 7.59617 100.604 9.55403 100.424 11.8627H109.301Z" fill="#AAAAAA"/>
<path d="M0 0H2.54032V20.8631H0V0Z" fill="white"/>
<path d="M5.13074 5.75592H7.52201V8.15199H7.58163C8.65802 6.28156 10.3913 5.40515 12.6027 5.40515C16.6676 5.40515 17.9229 7.68464 17.9229 10.928V20.863H15.3825V10.6355C15.3825 8.7942 14.1869 7.59617 12.2439 7.59617C9.16481 7.59617 7.67106 9.61232 7.67106 12.33V20.862H5.13074V5.75592Z" fill="white"/>
<path d="M34.5126 20.8631H31.9723V18.8178H31.9126C31.0758 20.4832 29.1029 21.2138 26.981 21.2138C22.2283 21.2138 19.8679 17.5323 19.8679 13.2658C19.8679 8.99931 22.1996 5.4052 26.9214 5.4052C28.5057 5.4052 30.7766 5.98913 31.9126 7.77213H31.9723V0H34.5126V20.8631ZM27.3388 19.0218C30.7457 19.0218 32.0617 16.1584 32.0617 13.3241C32.0617 10.3431 30.6872 7.59726 27.1897 7.59726C23.6922 7.59726 22.5573 10.4898 22.5573 13.4417C22.5573 16.3936 24.0521 19.0228 27.3398 19.0228L27.3388 19.0218Z" fill="white"/>
<path d="M39.7178 3.03932H37.1775V0H39.7178V3.03932ZM37.1775 5.75702H39.7178V20.8641H37.1775V5.75598V5.75702Z" fill="white"/>
<path d="M56.0107 19.5775C56.0107 24.4863 53.7088 26.9999 48.8369 26.9999C45.9377 26.9999 42.5904 25.8602 42.4403 22.5586H44.9806C45.0998 24.3707 47.3122 25.0129 48.9859 25.0129C52.3035 25.0129 53.6183 22.6752 53.6183 19.2861V18.2931H53.5587C52.7219 20.1344 50.6894 21.04 48.7464 21.04C44.1438 21.04 41.8419 17.5041 41.8419 13.3844C41.8419 9.81945 43.6348 5.40723 48.9849 5.40723C50.9279 5.40723 52.6612 6.25449 53.5875 7.91987H53.6173V5.758H56.0085V19.5796L56.0107 19.5775ZM53.5002 13.0034C53.5002 10.344 52.3045 7.5972 49.1062 7.5972C45.9079 7.5972 44.5334 10.1983 44.5334 13.0909C44.5334 15.8086 45.5491 18.8469 48.8975 18.8469C52.246 18.8469 53.5002 15.8367 53.5002 13.0024V13.0034Z" fill="white"/>
<path d="M65.3053 5.40625C70.2071 5.40625 72.8071 8.88378 72.8071 13.3251C72.8071 17.7665 70.2071 21.2149 65.3053 21.2149C60.4035 21.2149 57.8036 17.7374 57.8036 13.3251C57.8036 8.91292 60.4035 5.40625 65.3053 5.40625ZM65.3053 19.0228C67.9649 19.0228 70.1177 16.9775 70.1177 13.3251C70.1177 9.67275 67.966 7.59831 65.3053 7.59831C62.6447 7.59831 60.493 9.64361 60.493 13.3251C60.493 17.0067 62.6447 19.0228 65.3053 19.0228Z" fill="white"/>
<path d="M74.6904 0H77.2308V20.8631H74.6904V0ZM82.6404 3.03932H80.1001V0H82.6404V3.03932ZM80.1001 5.75702H82.6404V20.8641H80.1001V5.75598V5.75702ZM92.3843 20.8641H89.6651L83.9265 5.75702H86.766L91.1003 18.3515H91.16L95.374 5.75702H98.0335L92.3843 20.8641ZM111.752 16.072C111.064 19.4027 108.613 21.2149 105.147 21.2149C100.215 21.2149 97.8834 17.8841 97.7343 13.2668C97.7343 8.73805 100.783 5.40625 104.998 5.40625C110.468 5.40625 112.142 10.4024 111.991 14.0558H100.425C100.335 16.6861 101.859 19.0228 105.237 19.0228C107.329 19.0228 108.794 18.0298 109.242 16.072H111.753H111.752ZM109.301 11.8638C109.182 9.49684 107.358 7.59726 104.847 7.59726C102.188 7.59726 100.604 9.55513 100.424 11.8638H109.301Z" fill="#AAAAAA"/>
</g>
<defs>
<clipPath id="clip0_5_395">
<rect width="112" height="27" fill="white"/>
</clipPath>
</defs>
</svg>
