<?xml version="1.0" encoding="utf-8"?>
<!-- Generator: Adobe Illustrator 27.8.0, SVG Export Plug-In . SVG Version: 6.00 Build 0)  -->
<svg version="1.1" id="Layer_1" xmlns="http://www.w3.org/2000/svg" xmlns:xlink="http://www.w3.org/1999/xlink" x="0px" y="0px"
	 viewBox="0 0 101 24" style="enable-background:new 0 0 101 24;" xml:space="preserve">
<style type="text/css">
	.st0{clip-path:url(#SVGID_00000103973136025144938880000011580687963183278998_);}
	.st1{fill:#6407CE;}
</style>
<g>
	<defs>
		<rect id="SVGID_1_" y="0" width="101" height="24"/>
	</defs>
	<clipPath id="SVGID_00000086667580231405804690000005333028459673415840_">
		<use xlink:href="#SVGID_1_"  style="overflow:visible;"/>
	</clipPath>
	<g style="clip-path:url(#SVGID_00000086667580231405804690000005333028459673415840_);">
		<path class="st1" d="M67.4,0h2.3v18.5h-2.3V0z"/>
		<path class="st1" d="M74.5,2.7h-2.3V0h2.3V2.7z M72.2,5.1h2.3v13.4h-2.3V5.1L72.2,5.1z"/>
		<path class="st1" d="M83.3,18.5h-2.5L75.7,5.1h2.6l3.9,11.2h0.1L86,5.1h2.4L83.3,18.5z"/>
		<path class="st1" d="M100.8,14.3c-0.6,3-2.8,4.6-6,4.6c-4.4,0-6.5-3-6.7-7.1c0-4,2.7-7,6.5-7c4.9,0,6.4,4.4,6.3,7.7H90.6
			c-0.1,2.3,1.3,4.4,4.3,4.4c1.9,0,3.2-0.9,3.6-2.6H100.8L100.8,14.3z M98.6,10.5c-0.1-2.1-1.8-3.8-4-3.8c-2.4,0-3.8,1.7-4,3.8H98.6
			z"/>
		<path class="st1" d="M0,0h2.3v18.5H0V0z"/>
		<path class="st1" d="M4.6,5.1h2.2v2.1h0.1c1-1.7,2.5-2.4,4.5-2.4c3.7,0,4.8,2,4.8,4.9v8.8h-2.3V9.5c0-1.6-1.1-2.7-2.8-2.7
			c-2.8,0-4.1,1.8-4.1,4.2v7.6H4.6V5.1z"/>
		<path class="st1" d="M31.1,18.5h-2.3v-1.8h-0.1c-0.8,1.5-2.5,2.1-4.4,2.1c-4.3,0-6.4-3.3-6.4-7.1c0-3.8,2.1-7,6.4-7
			c1.4,0,3.5,0.5,4.5,2.1h0.1V0h2.3V18.5z M24.7,16.9c3.1,0,4.3-2.5,4.3-5.1c0-2.6-1.2-5.1-4.4-5.1c-3.2,0-4.2,2.6-4.2,5.2
			C20.3,14.6,21.7,16.9,24.7,16.9L24.7,16.9z"/>
		<path class="st1" d="M35.8,2.7h-2.3V0h2.3V2.7z M33.5,5.1h2.3v13.4h-2.3V5.1L33.5,5.1z"/>
		<path class="st1" d="M50.5,17.4c0,4.4-2.1,6.6-6.5,6.6c-2.6,0-5.6-1-5.8-3.9h2.3c0.1,1.6,2.1,2.2,3.6,2.2c3,0,4.2-2.1,4.2-5.1
			v-0.9h-0.1c-0.8,1.6-2.6,2.4-4.3,2.4c-4.2,0-6.2-3.1-6.2-6.8c0-3.2,1.6-7.1,6.4-7.1c1.8,0,3.3,0.8,4.2,2.2h0V5.1h2.2L50.5,17.4
			L50.5,17.4z M48.2,11.6c0-2.4-1.1-4.8-4-4.8c-2.9,0-4.1,2.3-4.1,4.9c0,2.4,0.9,5.1,3.9,5.1C47.1,16.8,48.2,14.1,48.2,11.6
			L48.2,11.6z"/>
		<path class="st1" d="M58.9,4.8c4.4,0,6.8,3.1,6.8,7c0,3.9-2.3,7-6.8,7c-4.4,0-6.8-3.1-6.8-7C52.1,7.9,54.5,4.8,58.9,4.8z
			 M58.9,16.9c2.4,0,4.3-1.8,4.3-5.1c0-3.2-1.9-5.1-4.3-5.1s-4.3,1.8-4.3,5.1C54.6,15.1,56.5,16.9,58.9,16.9z"/>
		<path class="st1" d="M67.4,0h2.3v18.5h-2.3V0z M74.5,2.7h-2.3V0h2.3V2.7z M72.2,5.1h2.3v13.4h-2.3V5.1L72.2,5.1z M83.3,18.5h-2.5
			L75.7,5.1h2.6l3.9,11.2h0.1L86,5.1h2.4L83.3,18.5z M100.8,14.3c-0.6,3-2.8,4.6-6,4.6c-4.4,0-6.5-3-6.7-7.1c0-4,2.7-7,6.5-7
			c4.9,0,6.4,4.4,6.3,7.7H90.6c-0.1,2.3,1.3,4.4,4.3,4.4c1.9,0,3.2-0.9,3.6-2.6H100.8L100.8,14.3z M98.6,10.5
			c-0.1-2.1-1.8-3.8-4-3.8c-2.4,0-3.8,1.7-4,3.8H98.6z"/>
	</g>
</g>
</svg>
